<svg xmlns="http://www.w3.org/2000/svg" width="1200" height="760" viewBox="0 0 1200 760">
  <rect width="1200" height="760" fill="#f8faf7"/>
  <text x="600" y="45" text-anchor="middle" font-family="Arial" font-size="30" fill="#111827">BeeBoard v0.1 Micro - 20 mm x 12 mm</text>
  <text x="600" y="73" text-anchor="middle" font-family="Arial" font-size="18" fill="#374151">FPGA keeps AI/Motion/Power/Crypto/LiFi controllers on-chip; board keeps only physical interfaces</text>
  <g transform="translate(95,110) scale(50)">
    <rect x="0" y="0" width="20" height="12" rx="0.25" fill="#ffffff" stroke="#111827" stroke-width="0.08"/>
    <rect x="6.3" y="2.5" width="7" height="7" rx="0.12" fill="#dbeafe" stroke="#2563eb" stroke-width="0.06"/>
    <text x="9.8" y="5.75" text-anchor="middle" font-family="Arial" font-size="0.42" fill="#111827">U1 FPGA</text>
    <text x="9.8" y="6.35" text-anchor="middle" font-family="Arial" font-size="0.24" fill="#374151">on-chip controllers</text>

    <rect x="4.35" y="2.7" width="2.1" height="1.8" rx="0.08" fill="#fff7ed" stroke="#ea580c" stroke-width="0.04"/>
    <text x="5.4" y="3.65" text-anchor="middle" font-family="Arial" font-size="0.25">U2 Flash</text>
    <rect x="8.6" y="0.7" width="2.4" height="1.8" rx="0.08" fill="#ecfdf5" stroke="#059669" stroke-width="0.04"/>
    <text x="9.8" y="1.65" text-anchor="middle" font-family="Arial" font-size="0.25">U3 IMU</text>

    <rect x="1.3" y="4.7" width="3" height="3" rx="0.1" fill="#fef2f2" stroke="#dc2626" stroke-width="0.04"/>
    <text x="2.8" y="6.1" text-anchor="middle" font-family="Arial" font-size="0.25">U4 PMIC</text>
    <text x="2.8" y="6.55" text-anchor="middle" font-family="Arial" font-size="0.18">bio/supercap</text>
    <rect x="4.58" y="9.2" width="1.45" height="1.2" rx="0.06" fill="#eef2ff" stroke="#4f46e5" stroke-width="0.04"/>
    <text x="5.3" y="9.87" text-anchor="middle" font-family="Arial" font-size="0.22">U5 1V2</text>
    <rect x="6.48" y="9.4" width="1.45" height="1.2" rx="0.06" fill="#eef2ff" stroke="#4f46e5" stroke-width="0.04"/>
    <text x="7.2" y="10.07" text-anchor="middle" font-family="Arial" font-size="0.22">U6 3V3</text>

    <rect x="15.4" y="2.95" width="2" height="1.5" rx="0.08" fill="#ecfdf5" stroke="#16a34a" stroke-width="0.04"/>
    <text x="16.4" y="3.78" text-anchor="middle" font-family="Arial" font-size="0.22">U7 RX</text>
    <rect x="15.45" y="6.15" width="1.5" height="1.1" rx="0.08" fill="#fff1f2" stroke="#e11d48" stroke-width="0.04"/>
    <text x="16.2" y="6.78" text-anchor="middle" font-family="Arial" font-size="0.22">U8 TX</text>
    <circle cx="19.15" cy="6.8" r="0.45" fill="#fee2e2" stroke="#dc2626" stroke-width="0.06"/>
    <text x="19.15" y="6.9" text-anchor="middle" font-family="Arial" font-size="0.24">D1</text>
    <circle cx="19.15" cy="3.7" r="0.45" fill="#dcfce7" stroke="#16a34a" stroke-width="0.06"/>
    <text x="19.15" y="3.8" text-anchor="middle" font-family="Arial" font-size="0.24">D2</text>

    <rect x="0.0" y="9.0" width="0.7" height="1.5" fill="#fef3c7" stroke="#d97706" stroke-width="0.04"/>
    <text x="0.35" y="9.82" text-anchor="middle" font-family="Arial" font-size="0.18">J1</text>
    <rect x="0.0" y="7.05" width="0.7" height="1.5" fill="#fef3c7" stroke="#d97706" stroke-width="0.04"/>
    <text x="0.35" y="7.87" text-anchor="middle" font-family="Arial" font-size="0.18">J2</text>
    <rect x="0.0" y="5.1" width="0.7" height="1.5" fill="#fef3c7" stroke="#d97706" stroke-width="0.04"/>
    <text x="0.35" y="5.92" text-anchor="middle" font-family="Arial" font-size="0.18">J3</text>
    <rect x="14.35" y="0.1" width="4.5" height="0.7" fill="#fef3c7" stroke="#d97706" stroke-width="0.04"/>
    <text x="16.6" y="0.55" text-anchor="middle" font-family="Arial" font-size="0.18">J4 camera/spectral</text>
    <rect x="3.7" y="11.2" width="4.2" height="0.7" fill="#fef3c7" stroke="#d97706" stroke-width="0.04"/>
    <text x="5.8" y="11.65" text-anchor="middle" font-family="Arial" font-size="0.18">J6 wing</text>
    <rect x="8.0" y="11.2" width="4.0" height="0.7" fill="#fef3c7" stroke="#d97706" stroke-width="0.04"/>
    <text x="10" y="11.65" text-anchor="middle" font-family="Arial" font-size="0.18">J5 debug</text>
    <rect x="12.7" y="11.2" width="2.0" height="0.7" fill="#fef3c7" stroke="#d97706" stroke-width="0.04"/>
    <text x="13.7" y="11.65" text-anchor="middle" font-family="Arial" font-size="0.18">J8</text>
    <rect x="16.2" y="11.2" width="2.0" height="0.7" fill="#fef3c7" stroke="#d97706" stroke-width="0.04"/>
    <text x="17.2" y="11.65" text-anchor="middle" font-family="Arial" font-size="0.18">J9</text>

    <rect x="5.1" y="5.4" width="1.8" height="1.5" rx="0.06" fill="#e5e7eb" stroke="#4b5563" stroke-width="0.04"/>
    <text x="6.0" y="6.22" text-anchor="middle" font-family="Arial" font-size="0.18">B:U9</text>
    <rect x="7.0" y="5.4" width="1.8" height="1.5" rx="0.06" fill="#e5e7eb" stroke="#4b5563" stroke-width="0.04"/>
    <text x="7.9" y="6.22" text-anchor="middle" font-family="Arial" font-size="0.18">B:U10</text>
    <rect x="12.7" y="8.15" width="1.8" height="1.5" rx="0.06" fill="#e5e7eb" stroke="#4b5563" stroke-width="0.04"/>
    <text x="13.6" y="9.0" text-anchor="middle" font-family="Arial" font-size="0.18">B:U11</text>
    <rect x="15.1" y="8.15" width="1.8" height="1.5" rx="0.06" fill="#e5e7eb" stroke="#4b5563" stroke-width="0.04"/>
    <text x="16.0" y="9.0" text-anchor="middle" font-family="Arial" font-size="0.18">B:U12</text>
  </g>
</svg>

